HIERARCHY
ROOT Hips
{
	OFFSET 0.000000 0.000000 0.000000
	CHANNELS 6 Xposition Yposition Zposition Zrotation Yrotation Xrotation 
	JOINT LHipJoint
	{
		OFFSET 0.000000 0.000000 0.000000
		CHANNELS 3 Zrotation Yrotation Xrotation
		JOINT LeftUpLeg
		{
			OFFSET 1.363060 -1.794630 0.839290
			CHANNELS 3 Zrotation Yrotation Xrotation
			JOINT LeftLeg
			{
				OFFSET 2.448110 -6.726130 0.000000
				CHANNELS 3 Zrotation Yrotation Xrotation
				JOINT LeftFoot
				{
					OFFSET 2.562200 -7.039590 0.000000
					CHANNELS 3 Zrotation Yrotation Xrotation
					JOINT LeftToeBase
					{
						OFFSET 0.157640 -0.433110 2.322550
						CHANNELS 3 Zrotation Yrotation Xrotation
						End Site
						{
							OFFSET 0.000000 0.000000 0.000000
						}
					}
				}
			}
		}
	}
	JOINT RHipJoint
	{
		OFFSET 0.000000 0.000000 0.000000
		CHANNELS 3 Zrotation Yrotation Xrotation
		JOINT RightUpLeg
		{
			OFFSET -1.305520 -1.794630 0.839290
			CHANNELS 3 Zrotation Yrotation Xrotation
			JOINT RightLeg
			{
				OFFSET -2.542530 -6.985550 0.000000
				CHANNELS 3 Zrotation Yrotation Xrotation
				JOINT RightFoot
				{
					OFFSET -2.568260 -7.056230 0.000000
					CHANNELS 3 Zrotation Yrotation Xrotation
					JOINT RightToeBase
					{
						OFFSET -0.164730 -0.452590 2.363150
						CHANNELS 3 Zrotation Yrotation Xrotation
						End Site
						{
							OFFSET 0.000000 0.000000 0.000000
						}
					}
				}
			}
		}
	}
	JOINT LowerBack
	{
		OFFSET 0.000000 0.000000 0.000000
		CHANNELS 3 Zrotation Yrotation Xrotation
		JOINT Spine
		{
			OFFSET 0.028270 2.035590 -0.193380
			CHANNELS 3 Zrotation Yrotation Xrotation
			JOINT Spine1
			{
				OFFSET 0.056720 2.048850 -0.042750
				CHANNELS 3 Zrotation Yrotation Xrotation
				JOINT Neck
				{
					OFFSET 0.000000 0.000000 0.000000
					CHANNELS 3 Zrotation Yrotation Xrotation
					JOINT Neck1
					{
						OFFSET -0.054170 1.746240 0.172020
						CHANNELS 3 Zrotation Yrotation Xrotation
						JOINT Head
						{
							OFFSET 0.104070 1.761360 -0.123970
							CHANNELS 3 Zrotation Yrotation Xrotation
							End Site
							{
								OFFSET 0.000000 0.000000 0.000000
							}
						}
					}
				}
				JOINT LeftShoulder
				{
					OFFSET 0.000000 0.000000 0.000000
					CHANNELS 3 Zrotation Yrotation Xrotation
					JOINT LeftArm
					{
						OFFSET 3.362410 1.200890 -0.311210
						CHANNELS 3 Zrotation Yrotation Xrotation
						JOINT LeftForeArm
						{
							OFFSET 4.983000 -0.000000 -0.000000
							CHANNELS 3 Zrotation Yrotation Xrotation
							JOINT LeftHand
							{
								OFFSET 3.483560 -0.000000 -0.000000
								CHANNELS 3 Zrotation Yrotation Xrotation
								JOINT LeftFingerBase
								{
									OFFSET 0.000000 0.000000 0.000000
									CHANNELS 3 Zrotation Yrotation Xrotation
									JOINT LeftHandIndex1
									{
										OFFSET 0.715260 -0.000000 -0.000000
										CHANNELS 3 Zrotation Yrotation Xrotation
										End Site
										{
											OFFSET 0.000000 0.000000 0.000000
										}
									}
								}
								JOINT LThumb
								{
									OFFSET 0.000000 0.000000 0.000000
									CHANNELS 3 Zrotation Yrotation Xrotation
									End Site
									{
										OFFSET 0.000000 0.000000 0.000000
									}
								}
							}
						}
					}
				}
				JOINT RightShoulder
				{
					OFFSET 0.000000 0.000000 0.000000
					CHANNELS 3 Zrotation Yrotation Xrotation
					JOINT RightArm
					{
						OFFSET -3.136600 1.374050 -0.404650
						CHANNELS 3 Zrotation Yrotation Xrotation
						JOINT RightForeArm
						{
							OFFSET -5.241900 -0.000000 -0.000000
							CHANNELS 3 Zrotation Yrotation Xrotation
							JOINT RightHand
							{
								OFFSET -3.444170 -0.000000 -0.000000
								CHANNELS 3 Zrotation Yrotation Xrotation
								JOINT RightFingerBase
								{
									OFFSET 0.000000 0.000000 0.000000
									CHANNELS 3 Zrotation Yrotation Xrotation
									JOINT RightHandIndex1
									{
										OFFSET -0.622530 -0.000000 -0.000000
										CHANNELS 3 Zrotation Yrotation Xrotation
										End Site
										{
											OFFSET 0.000000 0.000000 0.000000
										}
									}
								}
								JOINT RThumb
								{
									OFFSET 0.000000 0.000000 0.000000
									CHANNELS 3 Zrotation Yrotation Xrotation
									End Site
									{
										OFFSET 0.000000 0.000000 0.000000
									}
								}
							}
						}
					}
				}
			}
		}
	}
}
MOTION
Frames: 8
Frame Time: 0.008333
9.913967 21.464821 1.127667 48.265987 -81.233347 -1.647082 -9.226471 -2.694175 3.881751 -7.081673 -9.044187 -95.830707 4.825840 6.849627 98.448105 2.567372 12.124473 -6.542602 0.725000 -0.000000 -44.171600 10.636392 4.381950 2.999076 1.609255 -6.928704 -99.703920 -6.542229 -9.567868 106.259745 -0.698642 -1.020825 -13.516443 0.112200 -0.000000 -68.749100 -0.953959 -2.279891 -5.737623 -0.316702 -2.300584 -3.410768 -2.792596 -2.426797 3.083489 4.440686 -12.117183 -6.898641 -0.773128 -0.054399 -0.016173 0.000000 0.000000 0.000000 6.557440 3.689346 3.013013 -19.247904 -17.569877 0.441671 -0.404714 -78.309362 0.018938 -2.725793 -0.303902 0.016363 -0.041906 0.357287 0.000000 0.000000 0.000000 0.000000 0.000000 0.000000 0.000000 2.494502 -9.455257 3.457985 11.750373 23.532155 -2.065798 1.198300 60.641337 0.003122 -1.753434 5.062227 -0.087914 0.131309 -0.316076 0.000000 0.000000 0.000000 0.000000 0.000000 0.000000 0.000000 
9.833639 21.488317 1.109667 48.784162 -81.408822 -0.472431 -8.961376 -2.993736 3.899298 -6.703937 -9.609168 -101.199501 5.405204 7.338107 101.291738 2.622199 12.254722 -7.398320 0.589900 0.000000 -42.739899 10.368595 4.699499 3.374501 1.613321 -5.955932 -105.577362 -7.263761 -9.975592 109.070519 -0.681171 -0.840325 -14.427759 0.134800 0.000000 -68.068000 -0.904451 -2.329728 -5.880710 -0.268895 -2.356623 -3.428782 -2.631622 -2.492475 3.232436 4.312686 -12.812258 -7.134554 -0.590401 -0.035507 -0.100870 0.000000 0.000000 0.000000 7.073635 4.651624 3.118311 -17.193555 -16.438321 -1.692810 -0.351984 -79.242339 0.021858 -3.153418 -0.260242 0.017792 -0.034641 0.365748 0.000000 0.000000 0.000000 0.000000 0.000000 0.000000 0.000000 1.850415 -10.046101 3.366417 9.417181 22.485301 -4.492915 1.056849 62.979748 0.002407 -1.762295 5.139470 -0.089854 0.128613 -0.333234 0.000000 0.000000 0.000000 0.000000 0.000000 0.000000 0.000000 
9.746997 21.501835 1.091675 49.320686 -81.601521 0.594250 -8.693097 -3.225768 3.890213 -6.328662 -10.131944 -106.357197 5.958613 7.807667 103.741692 2.663680 12.331055 -8.087418 0.479400 -0.000000 -41.511700 10.088437 4.954105 3.725815 1.559269 -4.937564 -111.235036 -7.916220 -10.337192 111.405903 -0.675860 -0.724745 -15.172098 0.157101 0.000000 -67.461200 -0.879093 -2.384671 -5.972939 -0.228750 -2.416397 -3.434583 -2.485259 -2.561715 3.378518 4.240297 -13.515007 -7.418704 -0.416018 -0.015963 -0.201003 0.000000 0.000000 0.000000 7.622318 5.744453 3.226373 -15.461721 -15.210620 -3.856074 -0.308194 -80.044953 0.024179 -3.462625 -0.192325 0.017725 -0.030447 0.374667 0.000000 0.000000 0.000000 0.000000 0.000000 0.000000 0.000000 1.298496 -10.640525 3.278626 7.319836 21.275370 -7.034347 0.930644 65.185266 0.001338 -1.826332 5.141805 -0.093200 0.127323 -0.348904 0.000000 0.000000 0.000000 0.000000 0.000000 0.000000 0.000000 
9.653989 21.507587 1.073437 49.895976 -81.795839 1.507911 -8.428778 -3.383164 3.851432 -5.992629 -10.635171 -111.231968 6.467909 8.254653 105.790628 2.688252 12.336427 -8.622050 0.393000 -0.000000 -40.557700 9.805758 5.141178 4.035068 1.456233 -3.901371 -116.594649 -8.478901 -10.659283 113.261189 -0.685395 -0.690024 -15.761456 0.182500 0.000000 -66.970500 -0.881329 -2.447226 -5.998712 -0.197088 -2.482108 -3.424696 -2.351345 -2.636397 3.516563 4.218352 -14.200374 -7.743402 -0.250817 0.004058 -0.314473 0.000000 0.000000 0.000000 8.195623 6.906752 3.335057 -14.090804 -13.858016 -6.031304 -0.270999 -80.761268 0.025868 -3.660671 -0.087876 0.015663 -0.029179 0.383717 0.000000 0.000000 0.000000 0.000000 0.000000 0.000000 0.000000 0.831116 -11.214817 3.203582 5.494024 19.895913 -9.617552 0.819753 67.292072 0.000098 -1.902288 5.051156 -0.095451 0.127004 -0.362457 0.000000 0.000000 0.000000 0.000000 0.000000 0.000000 0.000000 
9.555017 21.507326 1.054618 50.544248 -81.979254 2.202203 -8.175691 -3.465477 3.777310 -5.730042 -11.138291 -115.734662 6.915306 8.675035 107.436505 2.691773 12.250946 -9.019207 0.328700 0.000000 -39.923700 9.530926 5.259801 4.284953 1.317999 -2.875482 -121.560048 -8.934090 -10.949258 114.639898 -0.708623 -0.726965 -16.229993 0.212200 -0.000000 -66.521500 -0.922659 -2.515754 -5.938133 -0.176801 -2.551291 -3.394136 -2.225904 -2.713663 3.642254 4.243839 -14.842690 -8.102123 -0.095672 0.024380 -0.439535 0.000000 0.000000 0.000000 8.807429 8.079124 3.441742 -13.132219 -12.388602 -8.202016 -0.238731 -81.416704 0.027193 -3.800608 0.056575 0.011701 -0.029589 0.392570 0.000000 0.000000 0.000000 0.000000 0.000000 0.000000 0.000000 0.445046 -11.742902 3.149905 3.961098 18.328258 -12.159895 0.722880 69.338416 -0.001099 -1.953743 4.868507 -0.094905 0.127190 -0.373505 0.000000 0.000000 0.000000 0.000000 0.000000 0.000000 0.000000 
9.450192 21.502661 1.034984 51.289576 -82.138872 2.642354 -7.938906 -3.474584 3.672552 -5.558621 -11.668590 -119.812411 7.284156 9.064636 108.670092 2.671751 12.062840 -9.271103 0.289700 0.000000 -39.653200 9.274169 5.311357 4.471485 1.160700 -1.883012 -126.064883 -9.267601 -11.213243 115.542527 -0.742037 -0.815203 -16.591015 0.244500 0.000000 -66.116901 -1.008588 -2.588763 -5.795799 -0.169266 -2.622298 -3.343721 -2.105816 -2.791595 3.753300 4.307267 -15.415230 -8.481320 0.048102 0.044610 -0.571953 0.000000 0.000000 0.000000 9.457650 9.195399 3.542679 -12.600798 -10.791711 -10.349058 -0.208413 -82.058464 0.028382 -3.920991 0.227369 0.006439 -0.030634 0.401066 0.000000 0.000000 0.000000 0.000000 0.000000 0.000000 0.000000 0.128409 -12.199731 3.123030 2.740528 16.562963 -14.581588 0.637470 71.364591 -0.001954 -1.937419 4.613282 -0.089758 0.127179 -0.381919 0.000000 0.000000 0.000000 0.000000 0.000000 0.000000 0.000000 
9.339190 21.494505 1.013838 52.206849 -82.261568 2.760362 -7.722441 -3.412607 3.548994 -5.491036 -12.251263 -123.429243 7.559046 9.419740 109.477920 2.626846 11.767644 -9.353375 0.282200 0.000000 -39.782800 9.047333 5.299236 4.607573 0.985784 -0.943521 -130.075380 -9.469261 -11.454573 115.969300 -0.779288 -0.920960 -16.848246 0.275001 -0.000000 -65.770600 -1.155797 -2.666111 -5.601268 -0.179166 -2.694517 -3.281997 -1.990624 -2.869499 3.843897 4.400759 -15.864342 -8.858281 0.175957 0.063839 -0.704108 0.000000 0.000000 0.000000 10.146713 10.138947 3.636563 -12.479318 -8.971437 -12.448863 -0.174771 -82.777840 0.029579 -4.045194 0.405308 0.000580 -0.031695 0.408909 0.000000 0.000000 0.000000 0.000000 0.000000 0.000000 0.000000 -0.125064 -12.530374 3.129661 1.847818 14.556513 -16.796953 0.559730 73.430071 -0.002143 -1.811865 4.308276 -0.079208 0.126328 -0.387600 0.000000 0.000000 0.000000 0.000000 0.000000 0.000000 0.000000 
9.222520 21.483913 0.991344 53.272180 -82.341278 2.578357 -7.530126 -3.289666 3.416104 -5.516363 -12.893388 -126.553282 7.728735 9.735291 109.851389 2.557221 11.370433 -9.238197 0.311201 -0.000000 -40.316400 8.857457 5.231172 4.699287 0.811367 -0.079283 -133.544660 -9.531584 -11.674546 115.923752 -0.810010 -0.992244 -17.000388 0.296700 -0.000000 -65.503500 -1.360653 -2.742491 -5.371614 -0.205345 -2.763048 -3.211825 -1.877002 -2.942359 3.918720 4.510833 -16.187485 -9.221362 0.287159 0.081661 -0.831799 0.000000 0.000000 0.000000 10.866296 10.899552 3.719622 -12.741699 -7.013195 -14.487610 -0.136939 -83.566565 0.031129 -4.214641 0.560516 -0.004879 -0.031500 0.416319 0.000000 0.000000 0.000000 0.000000 0.000000 0.000000 0.000000 -0.329933 -12.734509 3.167666 1.272574 12.344403 -18.752528 0.485523 75.539812 -0.001465 -1.558612 3.997809 -0.064252 0.124013 -0.391032 0.000000 0.000000 0.000000 0.000000 0.000000 0.000000 0.000000 
